<svg width="40" height="40" viewBox="0 0 40 40" fill="none" xmlns="http://www.w3.org/2000/svg">
<rect width="40" height="40" fill="#F5F5F5"/>
<circle cx="20" cy="20" r="20" fill="#F1EEFD"/>
<rect x="2.5" y="15.2574" width="35" height="7.9423" rx="3.5" fill="#D6CEF9"/>
<rect x="2.5" y="15.2574" width="35" height="7.9423" rx="3.5" fill="#D6CEF9"/>
<rect x="2.5" y="15.2574" width="35" height="7.9423" rx="3.5" fill="#D6CEF9"/>
<rect x="2.5" y="15.2574" width="35" height="7.9423" rx="3.5" fill="#D6CEF9"/>
<rect x="2.5" y="15.2574" width="35" height="7.9423" rx="3.5" fill="white"/>
<rect x="2.5" y="15.2574" width="35" height="7.9423" rx="3.5" stroke="#573AC6"/>
<rect x="19.4412" y="15.2574" width="18.0588" height="7.9423" rx="3.5" fill="#D6CEF9"/>
<rect x="19.4412" y="15.2574" width="18.0588" height="7.9423" rx="3.5" fill="#D6CEF9"/>
<rect x="19.4412" y="15.2574" width="18.0588" height="7.9423" rx="3.5" fill="#D6CEF9"/>
<rect x="19.4412" y="15.2574" width="18.0588" height="7.9423" rx="3.5" fill="#D6CEF9"/>
<rect x="19.4412" y="15.2574" width="18.0588" height="7.9423" rx="3.5" fill="white"/>
<rect x="19.4412" y="15.2574" width="18.0588" height="7.9423" rx="3.5" stroke="#573AC6"/>
<path d="M16.3173 24.1997H22.2704C25.2233 24.1997 27.6179 26.5935 27.618 29.5464C27.618 32.4994 25.2234 34.8931 22.2704 34.8931H16.3173C13.3644 34.8929 10.9706 32.4993 10.9706 29.5464C10.9707 26.5935 13.3644 24.1998 16.3173 24.1997Z" fill="#D6CEF9"/>
<path d="M16.3173 24.1997H22.2704C25.2233 24.1997 27.6179 26.5935 27.618 29.5464C27.618 32.4994 25.2234 34.8931 22.2704 34.8931H16.3173C13.3644 34.8929 10.9706 32.4993 10.9706 29.5464C10.9707 26.5935 13.3644 24.1998 16.3173 24.1997Z" fill="#D6CEF9"/>
<path d="M16.3173 24.1997H22.2704C25.2233 24.1997 27.6179 26.5935 27.618 29.5464C27.618 32.4994 25.2234 34.8931 22.2704 34.8931H16.3173C13.3644 34.8929 10.9706 32.4993 10.9706 29.5464C10.9707 26.5935 13.3644 24.1998 16.3173 24.1997Z" fill="#D6CEF9"/>
<path d="M16.3173 24.1997H22.2704C25.2233 24.1997 27.6179 26.5935 27.618 29.5464C27.618 32.4994 25.2234 34.8931 22.2704 34.8931H16.3173C13.3644 34.8929 10.9706 32.4993 10.9706 29.5464C10.9707 26.5935 13.3644 24.1998 16.3173 24.1997Z" fill="#D6CEF9"/>
<path d="M16.3173 24.1997H22.2704C25.2233 24.1997 27.6179 26.5935 27.618 29.5464C27.618 32.4994 25.2234 34.8931 22.2704 34.8931H16.3173C13.3644 34.8929 10.9706 32.4993 10.9706 29.5464C10.9707 26.5935 13.3644 24.1998 16.3173 24.1997Z" fill="white"/>
<path d="M16.3173 24.1997H22.2704C25.2233 24.1997 27.6179 26.5935 27.618 29.5464C27.618 32.4994 25.2234 34.8931 22.2704 34.8931H16.3173C13.3644 34.8929 10.9706 32.4993 10.9706 29.5464C10.9707 26.5935 13.3644 24.1998 16.3173 24.1997Z" stroke="#573AC6"/>
<path d="M16.4995 7.69083H23.5005C30.0625 7.69083 35.3823 13.0106 35.3823 19.5727C35.3822 26.1346 30.0625 31.4545 23.5005 31.4545H16.4995C9.93749 31.4545 4.61775 26.1346 4.61765 19.5727C4.61765 13.0106 9.93743 7.69083 16.4995 7.69083Z" fill="#D6CEF9"/>
<path d="M16.4995 7.69083H23.5005C30.0625 7.69083 35.3823 13.0106 35.3823 19.5727C35.3822 26.1346 30.0625 31.4545 23.5005 31.4545H16.4995C9.93749 31.4545 4.61775 26.1346 4.61765 19.5727C4.61765 13.0106 9.93743 7.69083 16.4995 7.69083Z" fill="#D6CEF9"/>
<path d="M16.4995 7.69083H23.5005C30.0625 7.69083 35.3823 13.0106 35.3823 19.5727C35.3822 26.1346 30.0625 31.4545 23.5005 31.4545H16.4995C9.93749 31.4545 4.61775 26.1346 4.61765 19.5727C4.61765 13.0106 9.93743 7.69083 16.4995 7.69083Z" fill="#D6CEF9"/>
<path d="M16.4995 7.69083H23.5005C30.0625 7.69083 35.3823 13.0106 35.3823 19.5727C35.3822 26.1346 30.0625 31.4545 23.5005 31.4545H16.4995C9.93749 31.4545 4.61775 26.1346 4.61765 19.5727C4.61765 13.0106 9.93743 7.69083 16.4995 7.69083Z" fill="#D6CEF9"/>
<path d="M16.4995 7.69083H23.5005C30.0625 7.69083 35.3823 13.0106 35.3823 19.5727C35.3822 26.1346 30.0625 31.4545 23.5005 31.4545H16.4995C9.93749 31.4545 4.61775 26.1346 4.61765 19.5727C4.61765 13.0106 9.93743 7.69083 16.4995 7.69083Z" fill="white"/>
<path d="M16.4995 7.69083H23.5005C30.0625 7.69083 35.3823 13.0106 35.3823 19.5727C35.3822 26.1346 30.0625 31.4545 23.5005 31.4545H16.4995C9.93749 31.4545 4.61775 26.1346 4.61765 19.5727C4.61765 13.0106 9.93743 7.69083 16.4995 7.69083Z" stroke="#573AC6"/>
<path d="M16.2815 11.818H23.719C27.4316 11.8183 30.4416 14.828 30.4416 18.5407C30.4416 22.2534 27.4316 25.2631 23.719 25.2634H16.2815C12.5687 25.2634 9.55884 22.2535 9.55882 18.5407C9.55882 14.8279 12.5687 11.818 16.2815 11.818Z" fill="#D6CEF9"/>
<path d="M16.2815 11.818H23.719C27.4316 11.8183 30.4416 14.828 30.4416 18.5407C30.4416 22.2534 27.4316 25.2631 23.719 25.2634H16.2815C12.5687 25.2634 9.55884 22.2535 9.55882 18.5407C9.55882 14.8279 12.5687 11.818 16.2815 11.818Z" fill="#D6CEF9"/>
<path d="M16.2815 11.818H23.719C27.4316 11.8183 30.4416 14.828 30.4416 18.5407C30.4416 22.2534 27.4316 25.2631 23.719 25.2634H16.2815C12.5687 25.2634 9.55884 22.2535 9.55882 18.5407C9.55882 14.8279 12.5687 11.818 16.2815 11.818Z" fill="#D6CEF9"/>
<path d="M16.2815 11.818H23.719C27.4316 11.8183 30.4416 14.828 30.4416 18.5407C30.4416 22.2534 27.4316 25.2631 23.719 25.2634H16.2815C12.5687 25.2634 9.55884 22.2535 9.55882 18.5407C9.55882 14.8279 12.5687 11.818 16.2815 11.818Z" fill="#D6CEF9"/>
<path d="M16.2815 11.818H23.719C27.4316 11.8183 30.4416 14.828 30.4416 18.5407C30.4416 22.2534 27.4316 25.2631 23.719 25.2634H16.2815C12.5687 25.2634 9.55884 22.2535 9.55882 18.5407C9.55882 14.8279 12.5687 11.818 16.2815 11.818Z" fill="#573AC6"/>
<path d="M16.2815 11.818H23.719C27.4316 11.8183 30.4416 14.828 30.4416 18.5407C30.4416 22.2534 27.4316 25.2631 23.719 25.2634H16.2815C12.5687 25.2634 9.55884 22.2535 9.55882 18.5407C9.55882 14.8279 12.5687 11.818 16.2815 11.818Z" stroke="#573AC6"/>
<line y1="-0.5" x2="0.985614" y2="-0.5" transform="matrix(-0.716186 -0.69791 0.716186 -0.69791 20.3529 3.75148)" stroke="black"/>
<line x1="19.7353" y1="3.75148" x2="19.7353" y2="7.8787" stroke="#573AC6" stroke-width="3"/>
<ellipse cx="19.2941" cy="3.40754" rx="2.47059" ry="2.40754" fill="#573AC6"/>
<ellipse cx="14.7059" cy="18.1967" rx="2.11765" ry="2.06361" fill="white"/>
<ellipse cx="24.5882" cy="18.1967" rx="2.11765" ry="2.06361" fill="white"/>
<ellipse cx="19.6471" cy="22.324" rx="1.41176" ry="1.37574" fill="white"/>
<ellipse cx="19.2941" cy="3.40754" rx="2.47059" ry="2.40754" fill="#573AC6"/>
<line y1="-1" x2="2.95684" y2="-1" transform="matrix(-0.716186 0.69791 -0.716186 -0.69791 11.8824 32.642)" stroke="#573AC6" stroke-width="2"/>
<line y1="-1" x2="2.95979" y2="-1" transform="matrix(0.742605 0.669729 -0.688641 0.725102 25.2941 34.0177)" stroke="#573AC6" stroke-width="2"/>
</svg>
